<?xml version="1.0" encoding="UTF-8" standalone="no"?>
<svg width="190px" height="150px" viewBox="0 0 190 150" version="1.1" xmlns="http://www.w3.org/2000/svg" xmlns:xlink="http://www.w3.org/1999/xlink">
    <!-- Generator: Sketch 45 (43475) - http://www.bohemiancoding.com/sketch -->
    <title>搜索不到图片 拷贝</title>
    <desc>Created with Sketch.</desc>
    <defs>
        <rect id="path-1" x="161" y="89" width="970" height="600"></rect>
        <filter x="-3.3%" y="-4.7%" width="106.6%" height="110.7%" filterUnits="objectBoundingBox" id="filter-2">
            <feOffset dx="0" dy="4" in="SourceAlpha" result="shadowOffsetOuter1"></feOffset>
            <feGaussianBlur stdDeviation="10" in="shadowOffsetOuter1" result="shadowBlurOuter1"></feGaussianBlur>
            <feColorMatrix values="0 0 0 0 0   0 0 0 0 0   0 0 0 0 0  0 0 0 0.15 0" type="matrix" in="shadowBlurOuter1"></feColorMatrix>
        </filter>
    </defs>
    <g id="Page-1" stroke="none" stroke-width="1" fill="none" fill-rule="evenodd">
        <g id="图片库－我的购买为空" transform="translate(-631.000000, -246.000000)">
            <g id="bg" fill-rule="nonzero">
                <use fill="black" fill-opacity="1" filter="url(#filter-2)" xlink:href="#path-1"></use>
                <use fill="#FFFFFF" fill-rule="evenodd" xlink:href="#path-1"></use>
            </g>
            <g id="搜索不到图片-拷贝" transform="translate(631.000000, 246.000000)">
                <g id="Group" transform="translate(10.000000, 2.000000)">
                    <path d="M116.11811,145.741379 L58.5590551,145.741379 C57.0068054,145.740661 55.4666053,145.464092 54.007874,144.924138 C53.4772304,143.439812 53.2054304,141.872588 53.2047244,140.293103 L53.2047244,53.1206897 C53.2047244,45.5981905 59.1977632,39.5 66.5905512,39.5 L124.149606,39.5 C125.701856,39.5007183 127.242056,39.7772872 128.700787,40.3172414 C129.231431,41.8015671 129.503231,43.3687909 129.503937,44.9482759 L129.503937,132.12069 C129.503937,139.643189 123.510898,145.741379 116.11811,145.741379 L116.11811,145.741379 Z" id="圆角矩形_4_拷贝" fill="#E6EBED"></path>
                    <rect id="Rectangle" fill="#FFFFFF" x="102" y="44" width="14" height="2" rx="1"></rect>
                    <circle id="Oval" fill="#FFFFFF" cx="119.5" cy="45.5" r="1.5"></circle>
                    <polygon id="形状_9" fill="#FFFFFF" points="54.8818898 144.211776 70.9368504 119.862069 87.2367717 140.242707 99.2184252 128.034483 115.11811 144.37931"></polygon>
                    <path d="M73.5912598,31.3275862 L81.5772441,31.3275862 M88.3464567,31.3275862 L116.456693,31.3275862 C123.849481,31.3275862 129.84252,37.4257767 129.84252,44.9482759 L129.84252,80.9899828 M129.84252,89.7930345 L129.84252,94.3096552 M129.84252,102.852552 L129.84252,132.12069 C129.84252,139.643189 123.849481,145.741379 116.456693,145.741379 L58.8976378,145.741379 C51.5048498,145.741379 45.511811,139.643189 45.511811,132.12069 L45.511811,44.9482759 C45.511811,37.4257767 51.5048498,31.3275862 58.8976378,31.3275862 L65.9399213,31.3275862" id="圆角矩形_4_拷贝_5" stroke="#CCD5DB" stroke-width="2" stroke-linecap="round" stroke-linejoin="round"></path>
                    <g id="组_6">
                        <path d="M154.606299,26.8722586 C154.214553,26.9290858 153.819379,26.7948798 153.539704,26.5100294 C153.260028,26.2251789 153.128508,25.8229453 153.184724,25.4243793 L153.184724,19.1588621 C153.184724,18.3599727 153.821185,17.7123448 154.606299,17.7123448 C155.391413,17.7123448 156.027874,18.3599727 156.027874,19.1588621 L156.027874,25.4243793 C155.838939,26.128821 155.298416,26.6793453 154.606299,26.8722586 L154.606299,26.8722586 L154.606299,26.8722586 Z M154.606299,40.862069 C154.214819,40.9187938 153.819928,40.7847538 153.540317,40.5002371 C153.260706,40.2157203 153.128978,39.8139006 153.184724,39.4155517 L153.184724,33.1432241 C153.184724,32.3443347 153.821185,31.6967069 154.606299,31.6967069 C155.391413,31.6967069 156.027874,32.3443347 156.027874,33.1432241 L156.027874,39.4155517 C155.839013,40.1197552 155.29836,40.6698944 154.606299,40.862069 L154.606299,40.862069 L154.606299,40.862069 Z M152.235669,29.2844828 C152.291416,29.6828317 152.159687,30.0846514 151.880076,30.3691681 C151.600466,30.6536848 151.205575,30.7877248 150.814094,30.731 L144.656614,30.731 C143.888113,30.707007 143.277338,30.0661547 143.277338,29.2838017 C143.277338,28.5014488 143.888113,27.8605965 144.656614,27.8366034 L150.814094,27.8366034 C151.580343,27.8823078 152.191474,28.5047468 152.235669,29.2844828 L152.235669,29.2844828 L152.235669,29.2844828 Z M165.981575,29.2844828 C166.037422,29.6831024 165.90553,30.0852099 165.625591,30.3697924 C165.345653,30.6543748 164.950355,30.7882024 164.558661,30.731 L158.401181,30.731 C157.882658,30.7471886 157.396566,30.4749495 157.132603,30.0205234 C156.868639,29.5660974 156.868639,29.0015061 157.132603,28.54708 C157.396566,28.0926539 157.882658,27.8204149 158.401181,27.8366034 L164.558661,27.8366034 C165.24204,28.0460571 165.777126,28.5895085 165.984252,29.2844828 L165.984252,29.2844828 L165.981575,29.2844828 Z" id="矩形_3_拷贝" fill="#E6EBED"></path>
                        <path d="M159.96063,68.3009483 C159.661187,68.3448894 159.358911,68.2425898 159.144982,68.0249073 C158.931053,67.8072249 158.830517,67.4996456 158.873701,67.1949483 L158.873701,62.3991034 C158.873701,61.7882765 159.360336,61.2931034 159.96063,61.2931034 C160.560924,61.2931034 161.047559,61.7882765 161.047559,62.3991034 L161.047559,67.1949483 C160.903544,67.7336076 160.490001,68.1544068 159.96063,68.3009483 L159.96063,68.3009483 L159.96063,68.3009483 Z M159.96063,79 C159.661312,79.0433446 159.359396,78.9408495 159.145614,78.7233161 C158.931831,78.5057827 158.831104,78.1985699 158.873701,77.894 L158.873701,73.0967931 C158.873701,72.4859662 159.360336,71.9907931 159.96063,71.9907931 C160.560924,71.9907931 161.047559,72.4859662 161.047559,73.0967931 L161.047559,77.894 C160.903059,78.4323729 160.48972,78.852965 159.96063,79 L159.96063,79 L159.96063,79 Z M158.148189,70.1465517 C158.190786,70.4511216 158.090058,70.7583345 157.876276,70.9758679 C157.662494,71.1934013 157.360578,71.2958964 157.06126,71.2525517 L152.349449,71.2525517 C151.951788,71.2667496 151.578214,71.0589776 151.375246,70.7107254 C151.172278,70.3624733 151.172278,69.9292681 151.375246,69.5810159 C151.578214,69.2327638 151.951788,69.0249918 152.349449,69.0391897 L157.06126,69.0391897 C157.646976,69.0747552 158.113958,69.5505151 158.148189,70.1465517 L158.148189,70.1465517 L158.148189,70.1465517 Z M168.660079,70.1465517 C168.702777,70.4513923 168.601886,70.7588931 168.387775,70.9764922 C168.173665,71.1940913 167.871342,71.2963739 167.571811,71.2525517 L162.86,71.2525517 C162.274179,71.231636 161.809894,70.7423369 161.809894,70.1458707 C161.809894,69.5494045 162.274179,69.0601054 162.86,69.0391897 L167.571811,69.0391897 C168.093477,69.2003336 168.501713,69.615733 168.660079,70.1465517 L168.660079,70.1465517 L168.660079,70.1465517 Z" id="矩形_3_拷贝_2" fill="#E6EBED"></path>
                        <path d="M28.7795276,50.5940517 C28.4800842,50.6379928 28.1778085,50.5356932 27.9638796,50.3180108 C27.7499507,50.1003284 27.649415,49.792749 27.6925984,49.4880517 L27.6925984,44.6922069 C27.6925984,44.08138 28.1792332,43.5862069 28.7795276,43.5862069 C29.3798219,43.5862069 29.8664567,44.08138 29.8664567,44.6922069 L29.8664567,49.4880517 C29.7229294,50.0269984 29.3091811,50.4480062 28.7795276,50.5940517 L28.7795276,50.5940517 L28.7795276,50.5940517 Z M28.7795276,61.2931034 C28.4802094,61.3364481 28.1782939,61.233953 27.9645114,61.0164196 C27.750729,60.7988862 27.6500012,60.4916733 27.6925984,60.1871034 L27.6925984,55.3898966 C27.6925984,54.7790696 28.1792332,54.2838966 28.7795276,54.2838966 C29.3798219,54.2838966 29.8664567,54.7790696 29.8664567,55.3898966 L29.8664567,60.1871034 C29.7224421,60.7257627 29.3088987,61.146562 28.7795276,61.2931034 L28.7795276,61.2931034 Z M26.9670866,52.4396552 C27.0096839,52.744225 26.9089561,53.0514379 26.6951736,53.2689713 C26.4813912,53.4865047 26.1794756,53.5889998 25.8801575,53.5456552 L21.1683465,53.5456552 C20.7706852,53.559853 20.3971114,53.3520811 20.1941434,53.0038289 C19.9911754,52.6555767 19.9911754,52.2223715 20.1941434,51.8741194 C20.3971114,51.5258672 20.7706852,51.3180953 21.1683465,51.3322931 L25.8801575,51.3322931 C26.465874,51.3678587 26.9328552,51.8436186 26.9670866,52.4396552 L26.9670866,52.4396552 L26.9670866,52.4396552 Z M37.4789764,52.4396552 C37.5216743,52.7444958 37.4207833,53.0519965 37.2066729,53.2695956 C36.9925625,53.4871947 36.6902401,53.5894774 36.3907087,53.5456552 L31.6788976,53.5456552 C31.0930769,53.5247394 30.6287913,53.0354403 30.6287913,52.4389741 C30.6287913,51.842508 31.0930769,51.3532089 31.6788976,51.3322931 L36.3907087,51.3322931 C36.9123744,51.4934371 37.320611,51.9088365 37.4789764,52.4396552 L37.4789764,52.4396552 L37.4789764,52.4396552 Z" id="矩形_3_拷贝_3" fill="#E6EBED"></path>
                        <path d="M169.133403,132.87069 C169.133403,136.255814 166.436536,139 163.109781,139 C159.783026,139 157.086159,136.255814 157.086159,132.87069 C157.086159,129.485565 159.783026,126.741379 163.109781,126.741379 C164.707345,126.741379 166.239477,127.387144 167.369125,128.536613 C168.498773,129.686081 169.133403,131.245095 169.133403,132.87069 L169.133403,132.87069 Z M163.109781,128.886638 C160.947391,128.886638 159.194427,130.670359 159.194427,132.87069 C159.194427,135.071021 160.947391,136.854741 163.109781,136.854741 C165.272172,136.854741 167.025135,135.071021 167.025135,132.87069 C167.024397,130.67067 165.271865,128.88739 163.109781,128.886638 L163.109781,128.886638 Z" id="roll_拷贝" fill="#E6EBED"></path>
                        <path d="M9.37007874,83.7672414 C9.37007874,86.4001161 7.27251517,88.5344828 4.68503937,88.5344828 C2.09756357,88.5344828 -5.68434189e-14,86.4001161 -5.68434189e-14,83.7672414 C-5.68434189e-14,81.1343667 2.09756357,79 4.68503937,79 C7.27251517,79 9.37007874,81.1343667 9.37007874,83.7672414 L9.37007874,83.7672414 Z M4.68503937,80.6685345 C3.0031801,80.6685345 1.63976378,82.0558728 1.63976378,83.7672414 C1.63976378,85.4786099 3.0031801,86.8659483 4.68503937,86.8659483 C6.36689864,86.8659483 7.73031496,85.4786099 7.73031496,83.7672414 C7.7295763,82.0561842 6.36659258,80.6692861 4.68503937,80.6685345 L4.68503937,80.6685345 Z" id="roll_拷贝_2" fill="#E6EBED"></path>
                        <path d="M28.1102362,131.439655 C28.1102362,136.32928 24.214761,140.293103 19.4094488,140.293103 C14.6041366,140.293103 10.7086614,136.32928 10.7086614,131.439655 C10.7086614,126.550031 14.6041366,122.586207 19.4094488,122.586207 C24.214761,122.586207 28.1102362,126.550031 28.1102362,131.439655 Z M19.4094488,125.684914 C16.2859959,125.684914 13.753937,128.261399 13.753937,131.439655 C13.753937,134.617911 16.2859959,137.194397 19.4094488,137.194397 C22.5329017,137.194397 25.0649606,134.617911 25.0649606,131.439655 C25.0642217,128.261711 22.5325956,125.685666 19.4094488,125.684914 Z" id="roll_拷贝_4" fill="#E6EBED"></path>
                        <ellipse id="椭圆_2" fill="#E6EBED" fill-rule="nonzero" cx="115.11811" cy="4.0862069" rx="4.01574803" ry="4.0862069"></ellipse>
                        <path d="M95.3522276,89.2191702 L95.3175876,89.2037292 L87.9507272,85.9199162 C87.9223152,85.907377 87.8911573,85.9081017 87.8675258,85.9198504 L81.3373627,89.2107497 C81.3228939,89.2178147 81.3099624,89.2327192 81.3032249,89.2531909 C81.295582,89.2764139 81.2975526,89.3024131 81.3005988,89.3087144 C81.3311767,89.3665079 81.3906622,89.3858222 81.4391121,89.3614479 L87.9145801,86.0982408 L88.3475667,86.2912315 L95.2387983,89.3627897 C95.2520464,89.3686911 95.2659158,89.3716313 95.2881707,89.3716247 C95.3209708,89.3718385 95.3540613,89.3505796 95.368864,89.3184859 C95.378708,89.2966882 95.3794984,89.2705642 95.3708787,89.247897 C95.3663825,89.2360734 95.359835,89.2263667 95.3522276,89.2191702 Z M95.9375099,87.2903621 L96.1318612,87.3769949 L95.7247244,88.2903621 L95.7247244,87.2903621 L95.9375099,87.2903621 Z" id="矩形_17" stroke="#CCD5DB" stroke-width="2"></path>
                        <path d="M77.6377953,69.25 C77.6377953,73.3873745 74.3416239,76.7413793 70.2755906,76.7413793 C66.2095572,76.7413793 62.9133858,73.3873745 62.9133858,69.25" id="椭圆_4" stroke="#CCD5DB" stroke-width="2"></path>
                        <path d="M113.779528,69.25 C113.779528,73.3873745 110.483356,76.7413793 106.417323,76.7413793 C102.351289,76.7413793 99.0551181,73.3873745 99.0551181,69.25" id="椭圆_4_拷贝" stroke="#CCD5DB" stroke-width="2"></path>
                        <ellipse id="椭圆_5" fill="#FFFFFF" fill-rule="nonzero" cx="111.771654" cy="104.198276" rx="7.36220472" ry="7.49137931"></ellipse>
                    </g>
                </g>
            </g>
        </g>
    </g>
</svg>